<svg viewBox="0 0 480 480" xmlns="http://www.w3.org/2000/svg" xmlns:xlink="http://www.w3.org/1999/xlink" >
	<path fill="#e6e8e6" d="M438,277Q468,314,430,332.5Q392,351,375,376.5Q358,402,335,431.5Q312,461,276,453Q240,445,214,422.5Q188,400,150.5,407.5Q113,415,92,389Q71,363,72,328.5Q73,294,41.5,267Q10,240,38.5,212Q67,184,80,158.5Q93,133,97,91Q101,49,143.5,60.5Q186,72,213,60Q240,48,271.5,47.5Q303,47,334.5,57Q366,67,393.5,88Q421,109,441.5,138.5Q462,168,435,204Q408,240,438,277Z" />
    <text x="50%" y="50%" alignment-baseline="central" text-anchor="middle" fill="#3f403f", font-size="128", font-family="Arial, sans-serif">AP</text>
</svg>