<?xml version="1.0" standalone="no"?>
<!DOCTYPE svg PUBLIC "-//W3C//DTD SVG 20010904//EN"
 "http://www.w3.org/TR/2001/REC-SVG-20010904/DTD/svg10.dtd">
<svg version="1.0" xmlns="http://www.w3.org/2000/svg"
 width="936.000000pt" height="936.000000pt" viewBox="0 0 936.000000 936.000000"
 preserveAspectRatio="xMidYMid meet">
<metadata>
Created by potrace 1.14, written by Peter Selinger 2001-2017
</metadata>
<g transform="translate(0.000000,936.000000) scale(0.100000,-0.100000)"
fill="#000000" stroke="none">
<path d="M3451 7928 c-308 -605 -2827 -5647 -3171 -6346 -149 -305 -269 -556
-266 -559 15 -15 327 -23 809 -21 l538 3 195 385 c107 212 510 1013 895 1780
621 1240 1222 2426 1235 2439 9 9 36 -39 146 -256 l113 -223 688 0 c452 0 687
3 687 10 0 13 -1220 2456 -1453 2908 -93 182 -174 332 -178 332 -4 0 -112
-204 -238 -452z"/>
<path d="M4988 7790 c-54 -3 -100 -9 -103 -12 -6 -5 120 -243 452 -853 l229
-420 105 -6 c57 -4 396 -10 753 -13 l649 -7 111 -56 c161 -80 270 -155 362
-247 333 -333 414 -828 204 -1251 -113 -229 -279 -385 -555 -522 l-100 -50
-1775 -12 c-976 -7 -1778 -16 -1781 -19 -4 -4 -10 -760 -14 -1679 l-7 -1673
636 0 636 0 0 1029 0 1029 143 6 c78 3 522 8 987 11 886 6 1306 17 1430 35
226 34 527 138 769 266 585 309 1006 842 1166 1479 54 217 69 343 69 585 0
156 -4 247 -17 330 -121 787 -567 1408 -1264 1761 -217 109 -504 206 -678 228
-368 47 -2013 88 -2407 61z"/>
<path d="M5483 2233 c-35 -2 -63 -8 -63 -12 0 -10 526 -1058 568 -1132 26 -45
39 -58 64 -63 17 -3 130 -11 252 -17 216 -11 936 -6 1019 7 36 6 38 8 32 33
-3 14 -136 288 -295 609 l-289 582 -613 -2 c-337 -1 -641 -3 -675 -5z"/>
</g>
</svg>
