<?xml version="1.0" encoding="UTF-8"?>
<!-- Created with Inkscape (http://www.inkscape.org/) -->
<svg width="100.16mm" height="36.791mm" version="1.1" viewBox="0 0 100.16 36.791" xml:space="preserve" xmlns="http://www.w3.org/2000/svg"><defs><marker id="Triangle-6" overflow="visible" markerHeight="1" markerWidth="1" orient="auto-start-reverse" preserveAspectRatio="xMidYMid" viewBox="0 0 1 1"><path transform="scale(.5)" d="m5.77 0-8.65 5v-10z" fill="context-stroke" fill-rule="evenodd" stroke="context-stroke" stroke-width="1pt"/></marker><marker id="marker9-4" overflow="visible" markerHeight="1" markerWidth="1" orient="auto-start-reverse" preserveAspectRatio="xMidYMid" viewBox="0 0 1 1"><path transform="scale(.5)" d="m5.77 0-8.65 5v-10z" fill="context-stroke" fill-rule="evenodd" stroke="context-stroke" stroke-width="1pt"/></marker><marker id="Dot-0" overflow="visible" markerHeight="1" markerWidth="1" orient="auto" preserveAspectRatio="xMidYMid" viewBox="0 0 1 1"><path transform="scale(.5)" d="m5 0c0 2.76-2.24 5-5 5s-5-2.24-5-5 2.3-5 5-5c2.76 0 5 2.24 5 5z" fill="context-stroke" fill-rule="evenodd"/></marker><marker id="marker10-9" overflow="visible" markerHeight="1" markerWidth="1" orient="auto" preserveAspectRatio="xMidYMid" viewBox="0 0 1 1"><path transform="scale(.5)" d="m5 0c0 2.76-2.24 5-5 5s-5-2.24-5-5 2.3-5 5-5c2.76 0 5 2.24 5 5z" fill="context-stroke" fill-rule="evenodd"/></marker><marker id="Dot-7-5" overflow="visible" markerHeight="1" markerWidth="1" orient="auto" preserveAspectRatio="xMidYMid" viewBox="0 0 1 1"><path transform="scale(.5)" d="m5 0c0 2.76-2.24 5-5 5s-5-2.24-5-5 2.3-5 5-5c2.76 0 5 2.24 5 5z" fill="context-stroke" fill-rule="evenodd"/></marker><marker id="marker10-5-8" overflow="visible" markerHeight="1" markerWidth="1" orient="auto" preserveAspectRatio="xMidYMid" viewBox="0 0 1 1"><path transform="scale(.5)" d="m5 0c0 2.76-2.24 5-5 5s-5-2.24-5-5 2.3-5 5-5c2.76 0 5 2.24 5 5z" fill="context-stroke" fill-rule="evenodd"/></marker><marker id="ColoredDot-5" overflow="visible" markerHeight="1" markerWidth="1" orient="auto" preserveAspectRatio="xMidYMid" viewBox="0 0 1 1"><path transform="scale(.45)" d="m5 0c0 2.76-2.24 5-5 5s-5-2.24-5-5 2.3-5 5-5c2.76 0 5 2.24 5 5z" fill="context-fill" fill-rule="evenodd" stroke="context-stroke" stroke-width="2"/></marker><marker id="ColoredTriangle-1" overflow="visible" markerHeight="1" markerWidth="1" orient="auto-start-reverse" preserveAspectRatio="xMidYMid" viewBox="0 0 1 1"><path transform="scale(.5)" d="m5.77 0-8.65 5v-10z" fill="context-fill" fill-rule="evenodd" stroke="context-stroke" stroke-width="2"/></marker><marker id="ColoredDot-7-47" overflow="visible" markerHeight="1" markerWidth="1" orient="auto" preserveAspectRatio="xMidYMid" viewBox="0 0 1 1"><path transform="scale(.45)" d="m5 0c0 2.76-2.24 5-5 5s-5-2.24-5-5 2.3-5 5-5c2.76 0 5 2.24 5 5z" fill="context-fill" fill-rule="evenodd" stroke="context-stroke" stroke-width="2"/></marker><marker id="ColoredTriangle-7-0" overflow="visible" markerHeight="1" markerWidth="1" orient="auto-start-reverse" preserveAspectRatio="xMidYMid" viewBox="0 0 1 1"><path transform="scale(.5)" d="m5.77 0-8.65 5v-10z" fill="context-fill" fill-rule="evenodd" stroke="context-stroke" stroke-width="2"/></marker><marker id="ColoredDot-7-4-7" overflow="visible" markerHeight="1" markerWidth="1" orient="auto" preserveAspectRatio="xMidYMid" viewBox="0 0 1 1"><path transform="scale(.45)" d="m5 0c0 2.76-2.24 5-5 5s-5-2.24-5-5 2.3-5 5-5c2.76 0 5 2.24 5 5z" fill="context-fill" fill-rule="evenodd" stroke="context-stroke" stroke-width="2"/></marker><marker id="ColoredTriangle-7-6-6" overflow="visible" markerHeight="1" markerWidth="1" orient="auto-start-reverse" preserveAspectRatio="xMidYMid" viewBox="0 0 1 1"><path transform="scale(.5)" d="m5.77 0-8.65 5v-10z" fill="context-fill" fill-rule="evenodd" stroke="context-stroke" stroke-width="2"/></marker><marker id="ColoredDot-7-42-6" overflow="visible" markerHeight="1" markerWidth="1" orient="auto" preserveAspectRatio="xMidYMid" viewBox="0 0 1 1"><path transform="scale(.45)" d="m5 0c0 2.76-2.24 5-5 5s-5-2.24-5-5 2.3-5 5-5c2.76 0 5 2.24 5 5z" fill="context-fill" fill-rule="evenodd" stroke="context-stroke" stroke-width="2"/></marker><marker id="ColoredTriangle-7-2-5" overflow="visible" markerHeight="1" markerWidth="1" orient="auto-start-reverse" preserveAspectRatio="xMidYMid" viewBox="0 0 1 1"><path transform="scale(.5)" d="m5.77 0-8.65 5v-10z" fill="context-fill" fill-rule="evenodd" stroke="context-stroke" stroke-width="2"/></marker><marker id="ColoredDot-8-3" overflow="visible" markerHeight="1" markerWidth="1" orient="auto" preserveAspectRatio="xMidYMid" viewBox="0 0 1 1"><path transform="scale(.45)" d="m5 0c0 2.76-2.24 5-5 5s-5-2.24-5-5 2.3-5 5-5c2.76 0 5 2.24 5 5z" fill="context-fill" fill-rule="evenodd" stroke="context-stroke" stroke-width="2"/></marker><marker id="ColoredTriangle-3-4" overflow="visible" markerHeight="1" markerWidth="1" orient="auto-start-reverse" preserveAspectRatio="xMidYMid" viewBox="0 0 1 1"><path transform="scale(.5)" d="m5.77 0-8.65 5v-10z" fill="context-fill" fill-rule="evenodd" stroke="context-stroke" stroke-width="2"/></marker><marker id="ColoredDot-8-1-9" overflow="visible" markerHeight="1" markerWidth="1" orient="auto" preserveAspectRatio="xMidYMid" viewBox="0 0 1 1"><path transform="scale(.45)" d="m5 0c0 2.76-2.24 5-5 5s-5-2.24-5-5 2.3-5 5-5c2.76 0 5 2.24 5 5z" fill="context-fill" fill-rule="evenodd" stroke="context-stroke" stroke-width="2"/></marker><marker id="ColoredTriangle-3-5-2" overflow="visible" markerHeight="1" markerWidth="1" orient="auto-start-reverse" preserveAspectRatio="xMidYMid" viewBox="0 0 1 1"><path transform="scale(.5)" d="m5.77 0-8.65 5v-10z" fill="context-fill" fill-rule="evenodd" stroke="context-stroke" stroke-width="2"/></marker></defs><g transform="translate(-125.78 -41.254)"><g transform="matrix(1.3095 0 0 1.3095 -47.047 -41.343)" stroke-width=".76365"><g transform="translate(-20.046 -34.355)"><g fill="none" stroke-width=".20205"><path d="m154.65 100.5h69.566" marker-end="url(#marker9-4)" marker-start="url(#Triangle-6)" stroke="#000" stroke-dasharray="0.808195, 0.808195"/><path d="m154.57 122.66h70.114" marker-end="url(#marker10-9)" marker-start="url(#Dot-0)" stroke="#4ac683"/><path d="m170.03 100.5h38.808" marker-end="url(#marker10-5-8)" marker-start="url(#Dot-7-5)" stroke="#4ac683"/></g><path d="m189.43 100.51v21.274" fill="#ff7f2a" marker-end="url(#ColoredTriangle-1)" marker-start="url(#ColoredDot-5)" stroke="#000" stroke-width=".20205"/><path d="m178.74 100.51-5.9176 21.305" fill="#ff7f2a" marker-end="url(#ColoredTriangle-1)" marker-start="url(#ColoredDot-5)" stroke="#000" stroke-opacity=".94118" stroke-width=".20205"/><g fill="#4ac683" stroke="#000" stroke-opacity=".94118" stroke-width=".20205"><path d="m194.14 100.5 2.3733 21.278" marker-end="url(#ColoredTriangle-7-0)" marker-start="url(#ColoredDot-7-47)"/><path d="m208.84 100.5 15.134 21.138" marker-end="url(#ColoredTriangle-7-6-6)" marker-start="url(#ColoredDot-7-4-7)"/><path d="m221.41 100.5 2.8865 20.978" marker-end="url(#ColoredTriangle-7-2-5)" marker-start="url(#ColoredDot-7-42-6)"/><path d="m169.87 100.5-14.726 21.02" marker-end="url(#ColoredTriangle-3-4)" marker-start="url(#ColoredDot-8-3)"/><path d="m157.76 100.5-2.9584 20.898" marker-end="url(#ColoredTriangle-3-5-2)" marker-start="url(#ColoredDot-8-1-9)"/></g><g fill="#000000" font-family="'Cambria Math'" font-size="2.8287px" stroke-opacity=".94118" stroke-width=".20205"><text x="226.67166" y="123.2253" style="line-height:0" xml:space="preserve"><tspan x="226.67166" y="123.2253" fill="#000000" font-family="'Cambria Math'" font-size="2.8287px" stroke-width=".20205">Q</tspan></text><text x="222.66035" y="125.5132" style="line-height:0" xml:space="preserve"><tspan x="222.66035" y="125.5132" fill="#000000" font-family="'Cambria Math'" font-size="2.8287px" stroke-width=".20205">127</tspan></text><text x="188.47615" y="125.5039" style="line-height:0" xml:space="preserve"><tspan x="188.47615" y="125.5039" stroke-width=".20205">0</tspan><tspan x="188.47615" y="125.5039"/></text><text x="226.72139" y="101.13307" style="line-height:0" xml:space="preserve"><tspan x="226.72139" y="101.13307" fill="#000000" font-family="'Cambria Math'" font-size="2.8287px" stroke-width=".20205">r</tspan></text><text x="167.07484" y="99.407158" style="line-height:0" xml:space="preserve"><tspan x="167.07484" y="99.407158" font-size="2.8287px" stroke-width=".20205">α = -0.5 </tspan></text><text x="205.93886" y="99.435577" style="line-height:0" xml:space="preserve"><tspan x="205.93886" y="99.435577" font-size="2.8287px" stroke-width=".20205">ß = 1.5</tspan></text><text x="177.94016" y="99.407158" style="line-height:0" xml:space="preserve"><tspan x="177.94016" y="99.407158">0</tspan><tspan x="177.94016" y="99.407158"/></text><text x="187.9996" y="99.407158" style="line-height:0" xml:space="preserve"><tspan x="187.9996" y="99.407158" font-size="2.8287px" stroke-width=".20205">SZ</tspan></text><text x="151.87553" y="125.5039" style="line-height:0" xml:space="preserve"><tspan x="151.87553" y="125.5039" fill="#000000" font-family="'Cambria Math'" font-size="2.8287px" stroke-width=".20205">-128</tspan></text><text x="171.38715" y="125.52043" style="line-height:0" xml:space="preserve"><tspan x="171.38715" y="125.52043" font-size="2.8287px" stroke-width=".20205">-Z</tspan></text></g></g></g></g></svg>
