<?xml version="1.0" encoding="UTF-8"?>
<!-- Created with Inkscape (http://www.inkscape.org/) -->
<svg width="100.01mm" height="36.802mm" version="1.1" viewBox="0 0 100.01 36.802" xml:space="preserve" xmlns="http://www.w3.org/2000/svg"><defs><marker id="ColoredDot" overflow="visible" markerHeight="1" markerWidth="1" orient="auto" preserveAspectRatio="xMidYMid" viewBox="0 0 1 1"><path transform="scale(.45)" d="m5 0c0 2.76-2.24 5-5 5s-5-2.24-5-5 2.3-5 5-5c2.76 0 5 2.24 5 5z" fill="context-fill" fill-rule="evenodd" stroke="context-stroke" stroke-width="2"/></marker><marker id="ColoredTriangle" overflow="visible" markerHeight="1" markerWidth="1" orient="auto-start-reverse" preserveAspectRatio="xMidYMid" viewBox="0 0 1 1"><path transform="scale(.5)" d="m5.77 0-8.65 5v-10z" fill="context-fill" fill-rule="evenodd" stroke="context-stroke" stroke-width="2"/></marker><marker id="marker10" overflow="visible" markerHeight="1" markerWidth="1" orient="auto" preserveAspectRatio="xMidYMid" viewBox="0 0 1 1"><path transform="scale(.5)" d="m5 0c0 2.76-2.24 5-5 5s-5-2.24-5-5 2.3-5 5-5c2.76 0 5 2.24 5 5z" fill="context-stroke" fill-rule="evenodd"/></marker><marker id="Dot" overflow="visible" markerHeight="1" markerWidth="1" orient="auto" preserveAspectRatio="xMidYMid" viewBox="0 0 1 1"><path transform="scale(.5)" d="m5 0c0 2.76-2.24 5-5 5s-5-2.24-5-5 2.3-5 5-5c2.76 0 5 2.24 5 5z" fill="context-stroke" fill-rule="evenodd"/></marker><marker id="marker9" overflow="visible" markerHeight="1" markerWidth="1" orient="auto-start-reverse" preserveAspectRatio="xMidYMid" viewBox="0 0 1 1"><path transform="scale(.5)" d="m5.77 0-8.65 5v-10z" fill="context-stroke" fill-rule="evenodd" stroke="context-stroke" stroke-width="1pt"/></marker><marker id="Triangle" overflow="visible" markerHeight="1" markerWidth="1" orient="auto-start-reverse" preserveAspectRatio="xMidYMid" viewBox="0 0 1 1"><path transform="scale(.5)" d="m5.77 0-8.65 5v-10z" fill="context-stroke" fill-rule="evenodd" stroke="context-stroke" stroke-width="1pt"/></marker><marker id="Dot-7" overflow="visible" markerHeight="1" markerWidth="1" orient="auto" preserveAspectRatio="xMidYMid" viewBox="0 0 1 1"><path transform="scale(.5)" d="m5 0c0 2.76-2.24 5-5 5s-5-2.24-5-5 2.3-5 5-5c2.76 0 5 2.24 5 5z" fill="context-stroke" fill-rule="evenodd"/></marker><marker id="marker10-5" overflow="visible" markerHeight="1" markerWidth="1" orient="auto" preserveAspectRatio="xMidYMid" viewBox="0 0 1 1"><path transform="scale(.5)" d="m5 0c0 2.76-2.24 5-5 5s-5-2.24-5-5 2.3-5 5-5c2.76 0 5 2.24 5 5z" fill="context-stroke" fill-rule="evenodd"/></marker><marker id="ColoredDot-8" overflow="visible" markerHeight="1" markerWidth="1" orient="auto" preserveAspectRatio="xMidYMid" viewBox="0 0 1 1"><path transform="scale(.45)" d="m5 0c0 2.76-2.24 5-5 5s-5-2.24-5-5 2.3-5 5-5c2.76 0 5 2.24 5 5z" fill="context-fill" fill-rule="evenodd" stroke="context-stroke" stroke-width="2"/></marker><marker id="ColoredTriangle-3" overflow="visible" markerHeight="1" markerWidth="1" orient="auto-start-reverse" preserveAspectRatio="xMidYMid" viewBox="0 0 1 1"><path transform="scale(.5)" d="m5.77 0-8.65 5v-10z" fill="context-fill" fill-rule="evenodd" stroke="context-stroke" stroke-width="2"/></marker><marker id="ColoredDot-8-1" overflow="visible" markerHeight="1" markerWidth="1" orient="auto" preserveAspectRatio="xMidYMid" viewBox="0 0 1 1"><path transform="scale(.45)" d="m5 0c0 2.76-2.24 5-5 5s-5-2.24-5-5 2.3-5 5-5c2.76 0 5 2.24 5 5z" fill="context-fill" fill-rule="evenodd" stroke="context-stroke" stroke-width="2"/></marker><marker id="ColoredTriangle-3-5" overflow="visible" markerHeight="1" markerWidth="1" orient="auto-start-reverse" preserveAspectRatio="xMidYMid" viewBox="0 0 1 1"><path transform="scale(.5)" d="m5.77 0-8.65 5v-10z" fill="context-fill" fill-rule="evenodd" stroke="context-stroke" stroke-width="2"/></marker><marker id="ColoredDot-7" overflow="visible" markerHeight="1" markerWidth="1" orient="auto" preserveAspectRatio="xMidYMid" viewBox="0 0 1 1"><path transform="scale(.45)" d="m5 0c0 2.76-2.24 5-5 5s-5-2.24-5-5 2.3-5 5-5c2.76 0 5 2.24 5 5z" fill="context-fill" fill-rule="evenodd" stroke="context-stroke" stroke-width="2"/></marker><marker id="ColoredTriangle-7" overflow="visible" markerHeight="1" markerWidth="1" orient="auto-start-reverse" preserveAspectRatio="xMidYMid" viewBox="0 0 1 1"><path transform="scale(.5)" d="m5.77 0-8.65 5v-10z" fill="context-fill" fill-rule="evenodd" stroke="context-stroke" stroke-width="2"/></marker><marker id="ColoredDot-7-4" overflow="visible" markerHeight="1" markerWidth="1" orient="auto" preserveAspectRatio="xMidYMid" viewBox="0 0 1 1"><path transform="scale(.45)" d="m5 0c0 2.76-2.24 5-5 5s-5-2.24-5-5 2.3-5 5-5c2.76 0 5 2.24 5 5z" fill="context-fill" fill-rule="evenodd" stroke="context-stroke" stroke-width="2"/></marker><marker id="ColoredTriangle-7-6" overflow="visible" markerHeight="1" markerWidth="1" orient="auto-start-reverse" preserveAspectRatio="xMidYMid" viewBox="0 0 1 1"><path transform="scale(.5)" d="m5.77 0-8.65 5v-10z" fill="context-fill" fill-rule="evenodd" stroke="context-stroke" stroke-width="2"/></marker><marker id="ColoredDot-7-42" overflow="visible" markerHeight="1" markerWidth="1" orient="auto" preserveAspectRatio="xMidYMid" viewBox="0 0 1 1"><path transform="scale(.45)" d="m5 0c0 2.76-2.24 5-5 5s-5-2.24-5-5 2.3-5 5-5c2.76 0 5 2.24 5 5z" fill="context-fill" fill-rule="evenodd" stroke="context-stroke" stroke-width="2"/></marker><marker id="ColoredTriangle-7-2" overflow="visible" markerHeight="1" markerWidth="1" orient="auto-start-reverse" preserveAspectRatio="xMidYMid" viewBox="0 0 1 1"><path transform="scale(.5)" d="m5.77 0-8.65 5v-10z" fill="context-fill" fill-rule="evenodd" stroke="context-stroke" stroke-width="2"/></marker></defs><g transform="translate(-45.08 -86.234)"><g transform="matrix(1.3095 0 0 1.3095 -47.047 -41.343)" stroke-width=".76365"><g><g fill="none" stroke-width=".20205"><path d="m72.868 100.5h69.566" marker-end="url(#marker9)" marker-start="url(#Triangle)" stroke="#000" stroke-dasharray="0.808195, 0.808195"/><path d="m72.922 122.66h70.114" marker-end="url(#marker10)" marker-start="url(#Dot)" stroke="#4ac683"/><path d="m88.247 100.5h38.808" marker-end="url(#marker10-5)" marker-start="url(#Dot-7)" stroke="#4ac683"/></g><path d="m107.65 100.51-0.0632 21.25" fill="#ff7f2a" marker-end="url(#ColoredTriangle)" marker-start="url(#ColoredDot)" stroke="#000" stroke-width=".20205"/><g fill="#4ac683" stroke="#000" stroke-opacity=".94118" stroke-width=".20205"><path d="m96.962 100.51-5.8262 21.295" marker-end="url(#ColoredTriangle)" marker-start="url(#ColoredDot)"/><path d="m112.36 100.5 2.4325 21.293" marker-end="url(#ColoredTriangle-7)" marker-start="url(#ColoredDot-7)"/><path d="m127.06 100.5 15.51 21.04" marker-end="url(#ColoredTriangle-7-6)" marker-start="url(#ColoredDot-7-4)"/><path d="m139.63 100.5 3.2657 20.897" marker-end="url(#ColoredTriangle-7-2)" marker-start="url(#ColoredDot-7-42)"/><path d="m88.087 100.5-14.605 21.03" marker-end="url(#ColoredTriangle-3)" marker-start="url(#ColoredDot-8)"/><path d="m75.982 100.5-2.8555 20.888" marker-end="url(#ColoredTriangle-3-5)" marker-start="url(#ColoredDot-8-1)"/></g><g fill="#000000" font-family="'Cambria Math'" font-size="2.8287px" stroke-opacity=".94118" stroke-width=".20205"><text x="144.88931" y="123.14406" style="line-height:0" xml:space="preserve"><tspan x="144.88931" y="123.14406" fill="#000000" font-family="'Cambria Math'" font-size="2.8287px" stroke-width=".20205">Q</tspan></text><text x="140.98904" y="125.51012" style="line-height:0" xml:space="preserve"><tspan x="140.98904" y="125.51012" fill="#000000" font-family="'Cambria Math'" font-size="2.8287px" stroke-width=".20205">127</tspan></text><text x="106.80484" y="125.50546" style="line-height:0" xml:space="preserve"><tspan x="106.80484" y="125.50546" stroke-width=".20205">0</tspan><tspan x="106.80484" y="125.50546"/></text><text x="144.93904" y="101.13307" style="line-height:0" xml:space="preserve"><tspan x="144.93904" y="101.13307" fill="#000000" font-family="'Cambria Math'" font-size="2.8287px" stroke-width=".20205">r</tspan></text><text x="85.470306" y="99.378738" style="line-height:0" xml:space="preserve"><tspan x="85.470306" y="99.378738" font-size="2.8287px" stroke-width=".20205">α = -1 </tspan></text><text x="124.33431" y="99.407158" style="line-height:0" xml:space="preserve"><tspan x="124.33431" y="99.407158" font-size="2.8287px" stroke-width=".20205">ß = 1</tspan></text><text x="106.86807" y="99.378738" style="line-height:0" xml:space="preserve"><tspan x="106.86807" y="99.378738">0</tspan><tspan x="106.86807" y="99.378738"/></text><text x="70.204231" y="125.51012" style="line-height:0" xml:space="preserve"><tspan x="70.204231" y="125.51012" fill="#000000" font-family="'Cambria Math'" font-size="2.8287px" stroke-width=".20205">-127</tspan></text></g></g></g></g></svg>
